<?xml version="1.0" encoding="utf-8" standalone="no"?>
<!DOCTYPE svg PUBLIC "-//W3C//DTD SVG 1.1//EN"
  "http://www.w3.org/Graphics/SVG/1.1/DTD/svg11.dtd">
<!-- Created with matplotlib (https://matplotlib.org/) -->
<svg height="347.04pt" version="1.1" viewBox="0 0 851.641671 347.04" width="851.641671pt" xmlns="http://www.w3.org/2000/svg" xmlns:xlink="http://www.w3.org/1999/xlink">
 <metadata>
  <rdf:RDF xmlns:cc="http://creativecommons.org/ns#" xmlns:dc="http://purl.org/dc/elements/1.1/" xmlns:rdf="http://www.w3.org/1999/02/22-rdf-syntax-ns#">
   <cc:Work>
    <dc:type rdf:resource="http://purl.org/dc/dcmitype/StillImage"/>
    <dc:date>2021-04-07T10:52:12.730676</dc:date>
    <dc:format>image/svg+xml</dc:format>
    <dc:creator>
     <cc:Agent>
      <dc:title>Matplotlib v3.3.3, https://matplotlib.org/</dc:title>
     </cc:Agent>
    </dc:creator>
   </cc:Work>
  </rdf:RDF>
 </metadata>
 <defs>
  <style type="text/css">*{stroke-linecap:butt;stroke-linejoin:round;}</style>
 </defs>
 <g id="figure_1">
  <g id="patch_1">
   <path d="M 0 347.04 
L 851.641671 347.04 
L 851.641671 -0 
L 0 -0 
z
" style="fill:#ffffff;"/>
  </g>
  <g id="axes_1">
   <g id="PathCollection_1">
    <defs>
     <path d="M 0 3.535534 
C 0.937635 3.535534 1.836992 3.163008 2.5 2.5 
C 3.163008 1.836992 3.535534 0.937635 3.535534 0 
C 3.535534 -0.937635 3.163008 -1.836992 2.5 -2.5 
C 1.836992 -3.163008 0.937635 -3.535534 0 -3.535534 
C -0.937635 -3.535534 -1.836992 -3.163008 -2.5 -2.5 
C -3.163008 -1.836992 -3.535534 -0.937635 -3.535534 0 
C -3.535534 0.937635 -3.163008 1.836992 -2.5 2.5 
C -1.836992 3.163008 -0.937635 3.535534 0 3.535534 
z
" id="m705ee47eba" style="stroke:#000000;"/>
    </defs>
    <g clip-path="url(#pc44aa0ce5d)">
     <use style="stroke:#000000;" x="509.214412" xlink:href="#m705ee47eba" y="90.005588"/>
    </g>
   </g>
   <g id="PathCollection_2">
    <g clip-path="url(#pc44aa0ce5d)">
     <use style="stroke:#000000;" x="212.274279" xlink:href="#m705ee47eba" y="108.564346"/>
    </g>
   </g>
   <g id="PathCollection_3">
    <g clip-path="url(#pc44aa0ce5d)">
     <use style="stroke:#000000;" x="45.245455" xlink:href="#m705ee47eba" y="127.123104"/>
    </g>
   </g>
   <g id="PathCollection_4">
    <g clip-path="url(#pc44aa0ce5d)">
     <use style="stroke:#000000;" x="82.362971" xlink:href="#m705ee47eba" y="145.681863"/>
    </g>
   </g>
   <g id="PathCollection_5">
    <g clip-path="url(#pc44aa0ce5d)">
     <use style="stroke:#000000;" x="63.804213" xlink:href="#m705ee47eba" y="164.240621"/>
    </g>
   </g>
   <g id="PathCollection_6">
    <g clip-path="url(#pc44aa0ce5d)">
     <use style="stroke:#000000;" x="119.480488" xlink:href="#m705ee47eba" y="164.240621"/>
    </g>
   </g>
   <g id="PathCollection_7">
    <g clip-path="url(#pc44aa0ce5d)">
     <use style="stroke:#000000;" x="100.921729" xlink:href="#m705ee47eba" y="182.799379"/>
    </g>
   </g>
   <g id="PathCollection_8">
    <g clip-path="url(#pc44aa0ce5d)">
     <use style="stroke:#000000;" x="156.598004" xlink:href="#m705ee47eba" y="182.799379"/>
    </g>
   </g>
   <g id="PathCollection_9">
    <g clip-path="url(#pc44aa0ce5d)">
     <use style="stroke:#000000;" x="138.039246" xlink:href="#m705ee47eba" y="201.358137"/>
    </g>
   </g>
   <g id="PathCollection_10">
    <g clip-path="url(#pc44aa0ce5d)">
     <use style="stroke:#000000;" x="175.156763" xlink:href="#m705ee47eba" y="201.358137"/>
    </g>
   </g>
   <g id="PathCollection_11">
    <g clip-path="url(#pc44aa0ce5d)">
     <use style="stroke:#000000;" x="193.715521" xlink:href="#m705ee47eba" y="219.916896"/>
    </g>
   </g>
   <g id="PathCollection_12">
    <g clip-path="url(#pc44aa0ce5d)">
     <use style="stroke:#000000;" x="305.068071" xlink:href="#m705ee47eba" y="127.123104"/>
    </g>
   </g>
   <g id="PathCollection_13">
    <g clip-path="url(#pc44aa0ce5d)">
     <use style="stroke:#000000;" x="286.509313" xlink:href="#m705ee47eba" y="145.681863"/>
    </g>
   </g>
   <g id="PathCollection_14">
    <g clip-path="url(#pc44aa0ce5d)">
     <use style="stroke:#000000;" x="267.950554" xlink:href="#m705ee47eba" y="164.240621"/>
    </g>
   </g>
   <g id="PathCollection_15">
    <g clip-path="url(#pc44aa0ce5d)">
     <use style="stroke:#000000;" x="230.833038" xlink:href="#m705ee47eba" y="182.799379"/>
    </g>
   </g>
   <g id="PathCollection_16">
    <g clip-path="url(#pc44aa0ce5d)">
     <use style="stroke:#000000;" x="249.391796" xlink:href="#m705ee47eba" y="201.358137"/>
    </g>
   </g>
   <g id="PathCollection_17">
    <g clip-path="url(#pc44aa0ce5d)">
     <use style="stroke:#000000;" x="360.744346" xlink:href="#m705ee47eba" y="145.681863"/>
    </g>
   </g>
   <g id="PathCollection_18">
    <g clip-path="url(#pc44aa0ce5d)">
     <use style="stroke:#000000;" x="342.185588" xlink:href="#m705ee47eba" y="164.240621"/>
    </g>
   </g>
   <g id="PathCollection_19">
    <g clip-path="url(#pc44aa0ce5d)">
     <use style="stroke:#000000;" x="323.626829" xlink:href="#m705ee47eba" y="182.799379"/>
    </g>
   </g>
   <g id="PathCollection_20">
    <g clip-path="url(#pc44aa0ce5d)">
     <use style="stroke:#000000;" x="453.538137" xlink:href="#m705ee47eba" y="164.240621"/>
    </g>
   </g>
   <g id="PathCollection_21">
    <g clip-path="url(#pc44aa0ce5d)">
     <use style="stroke:#000000;" x="397.861863" xlink:href="#m705ee47eba" y="182.799379"/>
    </g>
   </g>
   <g id="PathCollection_22">
    <g clip-path="url(#pc44aa0ce5d)">
     <use style="stroke:#000000;" x="379.303104" xlink:href="#m705ee47eba" y="201.358137"/>
    </g>
   </g>
   <g id="PathCollection_23">
    <g clip-path="url(#pc44aa0ce5d)">
     <use style="stroke:#000000;" x="416.420621" xlink:href="#m705ee47eba" y="201.358137"/>
    </g>
   </g>
   <g id="PathCollection_24">
    <g clip-path="url(#pc44aa0ce5d)">
     <use style="stroke:#000000;" x="434.979379" xlink:href="#m705ee47eba" y="219.916896"/>
    </g>
   </g>
   <g id="PathCollection_25">
    <g clip-path="url(#pc44aa0ce5d)">
     <use style="stroke:#000000;" x="472.096896" xlink:href="#m705ee47eba" y="182.799379"/>
    </g>
   </g>
   <g id="PathCollection_26">
    <g clip-path="url(#pc44aa0ce5d)">
     <use style="stroke:#000000;" x="490.655654" xlink:href="#m705ee47eba" y="201.358137"/>
    </g>
   </g>
   <g id="PathCollection_27">
    <g clip-path="url(#pc44aa0ce5d)">
     <use style="stroke:#000000;" x="564.890687" xlink:href="#m705ee47eba" y="108.564346"/>
    </g>
   </g>
   <g id="PathCollection_28">
    <g clip-path="url(#pc44aa0ce5d)">
     <use style="stroke:#000000;" x="546.331929" xlink:href="#m705ee47eba" y="127.123104"/>
    </g>
   </g>
   <g id="PathCollection_29">
    <g clip-path="url(#pc44aa0ce5d)">
     <use style="stroke:#000000;" x="527.773171" xlink:href="#m705ee47eba" y="145.681863"/>
    </g>
   </g>
   <g id="PathCollection_30">
    <g clip-path="url(#pc44aa0ce5d)">
     <use style="stroke:#000000;" x="676.243237" xlink:href="#m705ee47eba" y="127.123104"/>
    </g>
   </g>
   <g id="PathCollection_31">
    <g clip-path="url(#pc44aa0ce5d)">
     <use style="stroke:#000000;" x="620.566962" xlink:href="#m705ee47eba" y="145.681863"/>
    </g>
   </g>
   <g id="PathCollection_32">
    <g clip-path="url(#pc44aa0ce5d)">
     <use style="stroke:#000000;" x="602.008204" xlink:href="#m705ee47eba" y="164.240621"/>
    </g>
   </g>
   <g id="PathCollection_33">
    <g clip-path="url(#pc44aa0ce5d)">
     <use style="stroke:#000000;" x="583.449446" xlink:href="#m705ee47eba" y="182.799379"/>
    </g>
   </g>
   <g id="PathCollection_34">
    <g clip-path="url(#pc44aa0ce5d)">
     <use style="stroke:#000000;" x="639.125721" xlink:href="#m705ee47eba" y="164.240621"/>
    </g>
   </g>
   <g id="PathCollection_35">
    <g clip-path="url(#pc44aa0ce5d)">
     <use style="stroke:#000000;" x="657.684479" xlink:href="#m705ee47eba" y="182.799379"/>
    </g>
   </g>
   <g id="PathCollection_36">
    <g clip-path="url(#pc44aa0ce5d)">
     <use style="stroke:#000000;" x="694.801996" xlink:href="#m705ee47eba" y="145.681863"/>
    </g>
   </g>
   <g id="PathCollection_37">
    <g clip-path="url(#pc44aa0ce5d)">
     <use style="stroke:#000000;" x="713.360754" xlink:href="#m705ee47eba" y="164.240621"/>
    </g>
   </g>
   <g id="PathCollection_38">
    <g clip-path="url(#pc44aa0ce5d)">
     <use style="stroke:#000000;" x="731.919512" xlink:href="#m705ee47eba" y="182.799379"/>
    </g>
   </g>
   <g id="PathCollection_39">
    <g clip-path="url(#pc44aa0ce5d)">
     <use style="stroke:#000000;" x="750.478271" xlink:href="#m705ee47eba" y="201.358137"/>
    </g>
   </g>
   <g id="PathCollection_40">
    <g clip-path="url(#pc44aa0ce5d)">
     <use style="stroke:#000000;" x="769.037029" xlink:href="#m705ee47eba" y="219.916896"/>
    </g>
   </g>
   <g id="PathCollection_41">
    <g clip-path="url(#pc44aa0ce5d)">
     <use style="stroke:#000000;" x="787.595787" xlink:href="#m705ee47eba" y="238.475654"/>
    </g>
   </g>
   <g id="PathCollection_42">
    <g clip-path="url(#pc44aa0ce5d)">
     <use style="stroke:#000000;" x="806.154545" xlink:href="#m705ee47eba" y="257.034412"/>
    </g>
   </g>
   <g id="line2d_1">
    <path clip-path="url(#pc44aa0ce5d)" d="M 509.214412 90.005588 
L 212.274279 108.564346 
" style="fill:none;stroke:#1f77b4;stroke-linecap:square;stroke-width:1.5;"/>
   </g>
   <g id="line2d_2">
    <path clip-path="url(#pc44aa0ce5d)" d="M 212.274279 108.564346 
L 45.245455 127.123104 
" style="fill:none;stroke:#ff7f0e;stroke-linecap:square;stroke-width:1.5;"/>
   </g>
   <g id="line2d_3">
    <path clip-path="url(#pc44aa0ce5d)" d="M 45.245455 127.123104 
L 82.362971 145.681863 
" style="fill:none;stroke:#2ca02c;stroke-linecap:square;stroke-width:1.5;"/>
   </g>
   <g id="line2d_4">
    <path clip-path="url(#pc44aa0ce5d)" d="M 82.362971 145.681863 
L 63.804213 164.240621 
" style="fill:none;stroke:#d62728;stroke-linecap:square;stroke-width:1.5;"/>
   </g>
   <g id="line2d_5">
    <path clip-path="url(#pc44aa0ce5d)" d="M 82.362971 145.681863 
L 119.480488 164.240621 
" style="fill:none;stroke:#9467bd;stroke-linecap:square;stroke-width:1.5;"/>
   </g>
   <g id="line2d_6">
    <path clip-path="url(#pc44aa0ce5d)" d="M 119.480488 164.240621 
L 100.921729 182.799379 
" style="fill:none;stroke:#8c564b;stroke-linecap:square;stroke-width:1.5;"/>
   </g>
   <g id="line2d_7">
    <path clip-path="url(#pc44aa0ce5d)" d="M 119.480488 164.240621 
L 156.598004 182.799379 
" style="fill:none;stroke:#e377c2;stroke-linecap:square;stroke-width:1.5;"/>
   </g>
   <g id="line2d_8">
    <path clip-path="url(#pc44aa0ce5d)" d="M 156.598004 182.799379 
L 138.039246 201.358137 
" style="fill:none;stroke:#7f7f7f;stroke-linecap:square;stroke-width:1.5;"/>
   </g>
   <g id="line2d_9">
    <path clip-path="url(#pc44aa0ce5d)" d="M 156.598004 182.799379 
L 175.156763 201.358137 
" style="fill:none;stroke:#bcbd22;stroke-linecap:square;stroke-width:1.5;"/>
   </g>
   <g id="line2d_10">
    <path clip-path="url(#pc44aa0ce5d)" d="M 175.156763 201.358137 
L 193.715521 219.916896 
" style="fill:none;stroke:#17becf;stroke-linecap:square;stroke-width:1.5;"/>
   </g>
   <g id="line2d_11">
    <path clip-path="url(#pc44aa0ce5d)" d="M 212.274279 108.564346 
L 305.068071 127.123104 
" style="fill:none;stroke:#1f77b4;stroke-linecap:square;stroke-width:1.5;"/>
   </g>
   <g id="line2d_12">
    <path clip-path="url(#pc44aa0ce5d)" d="M 305.068071 127.123104 
L 286.509313 145.681863 
" style="fill:none;stroke:#ff7f0e;stroke-linecap:square;stroke-width:1.5;"/>
   </g>
   <g id="line2d_13">
    <path clip-path="url(#pc44aa0ce5d)" d="M 286.509313 145.681863 
L 267.950554 164.240621 
" style="fill:none;stroke:#2ca02c;stroke-linecap:square;stroke-width:1.5;"/>
   </g>
   <g id="line2d_14">
    <path clip-path="url(#pc44aa0ce5d)" d="M 267.950554 164.240621 
L 230.833038 182.799379 
" style="fill:none;stroke:#d62728;stroke-linecap:square;stroke-width:1.5;"/>
   </g>
   <g id="line2d_15">
    <path clip-path="url(#pc44aa0ce5d)" d="M 230.833038 182.799379 
L 249.391796 201.358137 
" style="fill:none;stroke:#9467bd;stroke-linecap:square;stroke-width:1.5;"/>
   </g>
   <g id="line2d_16">
    <path clip-path="url(#pc44aa0ce5d)" d="M 305.068071 127.123104 
L 360.744346 145.681863 
" style="fill:none;stroke:#8c564b;stroke-linecap:square;stroke-width:1.5;"/>
   </g>
   <g id="line2d_17">
    <path clip-path="url(#pc44aa0ce5d)" d="M 360.744346 145.681863 
L 342.185588 164.240621 
" style="fill:none;stroke:#e377c2;stroke-linecap:square;stroke-width:1.5;"/>
   </g>
   <g id="line2d_18">
    <path clip-path="url(#pc44aa0ce5d)" d="M 342.185588 164.240621 
L 323.626829 182.799379 
" style="fill:none;stroke:#7f7f7f;stroke-linecap:square;stroke-width:1.5;"/>
   </g>
   <g id="line2d_19">
    <path clip-path="url(#pc44aa0ce5d)" d="M 360.744346 145.681863 
L 453.538137 164.240621 
" style="fill:none;stroke:#bcbd22;stroke-linecap:square;stroke-width:1.5;"/>
   </g>
   <g id="line2d_20">
    <path clip-path="url(#pc44aa0ce5d)" d="M 453.538137 164.240621 
L 397.861863 182.799379 
" style="fill:none;stroke:#17becf;stroke-linecap:square;stroke-width:1.5;"/>
   </g>
   <g id="line2d_21">
    <path clip-path="url(#pc44aa0ce5d)" d="M 397.861863 182.799379 
L 379.303104 201.358137 
" style="fill:none;stroke:#1f77b4;stroke-linecap:square;stroke-width:1.5;"/>
   </g>
   <g id="line2d_22">
    <path clip-path="url(#pc44aa0ce5d)" d="M 397.861863 182.799379 
L 416.420621 201.358137 
" style="fill:none;stroke:#ff7f0e;stroke-linecap:square;stroke-width:1.5;"/>
   </g>
   <g id="line2d_23">
    <path clip-path="url(#pc44aa0ce5d)" d="M 416.420621 201.358137 
L 434.979379 219.916896 
" style="fill:none;stroke:#2ca02c;stroke-linecap:square;stroke-width:1.5;"/>
   </g>
   <g id="line2d_24">
    <path clip-path="url(#pc44aa0ce5d)" d="M 453.538137 164.240621 
L 472.096896 182.799379 
" style="fill:none;stroke:#d62728;stroke-linecap:square;stroke-width:1.5;"/>
   </g>
   <g id="line2d_25">
    <path clip-path="url(#pc44aa0ce5d)" d="M 472.096896 182.799379 
L 490.655654 201.358137 
" style="fill:none;stroke:#9467bd;stroke-linecap:square;stroke-width:1.5;"/>
   </g>
   <g id="line2d_26">
    <path clip-path="url(#pc44aa0ce5d)" d="M 509.214412 90.005588 
L 564.890687 108.564346 
" style="fill:none;stroke:#8c564b;stroke-linecap:square;stroke-width:1.5;"/>
   </g>
   <g id="line2d_27">
    <path clip-path="url(#pc44aa0ce5d)" d="M 564.890687 108.564346 
L 546.331929 127.123104 
" style="fill:none;stroke:#e377c2;stroke-linecap:square;stroke-width:1.5;"/>
   </g>
   <g id="line2d_28">
    <path clip-path="url(#pc44aa0ce5d)" d="M 546.331929 127.123104 
L 527.773171 145.681863 
" style="fill:none;stroke:#7f7f7f;stroke-linecap:square;stroke-width:1.5;"/>
   </g>
   <g id="line2d_29">
    <path clip-path="url(#pc44aa0ce5d)" d="M 564.890687 108.564346 
L 676.243237 127.123104 
" style="fill:none;stroke:#bcbd22;stroke-linecap:square;stroke-width:1.5;"/>
   </g>
   <g id="line2d_30">
    <path clip-path="url(#pc44aa0ce5d)" d="M 676.243237 127.123104 
L 620.566962 145.681863 
" style="fill:none;stroke:#17becf;stroke-linecap:square;stroke-width:1.5;"/>
   </g>
   <g id="line2d_31">
    <path clip-path="url(#pc44aa0ce5d)" d="M 620.566962 145.681863 
L 602.008204 164.240621 
" style="fill:none;stroke:#1f77b4;stroke-linecap:square;stroke-width:1.5;"/>
   </g>
   <g id="line2d_32">
    <path clip-path="url(#pc44aa0ce5d)" d="M 602.008204 164.240621 
L 583.449446 182.799379 
" style="fill:none;stroke:#ff7f0e;stroke-linecap:square;stroke-width:1.5;"/>
   </g>
   <g id="line2d_33">
    <path clip-path="url(#pc44aa0ce5d)" d="M 620.566962 145.681863 
L 639.125721 164.240621 
" style="fill:none;stroke:#2ca02c;stroke-linecap:square;stroke-width:1.5;"/>
   </g>
   <g id="line2d_34">
    <path clip-path="url(#pc44aa0ce5d)" d="M 639.125721 164.240621 
L 657.684479 182.799379 
" style="fill:none;stroke:#d62728;stroke-linecap:square;stroke-width:1.5;"/>
   </g>
   <g id="line2d_35">
    <path clip-path="url(#pc44aa0ce5d)" d="M 676.243237 127.123104 
L 694.801996 145.681863 
" style="fill:none;stroke:#9467bd;stroke-linecap:square;stroke-width:1.5;"/>
   </g>
   <g id="line2d_36">
    <path clip-path="url(#pc44aa0ce5d)" d="M 694.801996 145.681863 
L 713.360754 164.240621 
" style="fill:none;stroke:#8c564b;stroke-linecap:square;stroke-width:1.5;"/>
   </g>
   <g id="line2d_37">
    <path clip-path="url(#pc44aa0ce5d)" d="M 713.360754 164.240621 
L 731.919512 182.799379 
" style="fill:none;stroke:#e377c2;stroke-linecap:square;stroke-width:1.5;"/>
   </g>
   <g id="line2d_38">
    <path clip-path="url(#pc44aa0ce5d)" d="M 731.919512 182.799379 
L 750.478271 201.358137 
" style="fill:none;stroke:#7f7f7f;stroke-linecap:square;stroke-width:1.5;"/>
   </g>
   <g id="line2d_39">
    <path clip-path="url(#pc44aa0ce5d)" d="M 750.478271 201.358137 
L 769.037029 219.916896 
" style="fill:none;stroke:#bcbd22;stroke-linecap:square;stroke-width:1.5;"/>
   </g>
   <g id="line2d_40">
    <path clip-path="url(#pc44aa0ce5d)" d="M 769.037029 219.916896 
L 787.595787 238.475654 
" style="fill:none;stroke:#17becf;stroke-linecap:square;stroke-width:1.5;"/>
   </g>
   <g id="line2d_41">
    <path clip-path="url(#pc44aa0ce5d)" d="M 787.595787 238.475654 
L 806.154545 257.034412 
" style="fill:none;stroke:#1f77b4;stroke-linecap:square;stroke-width:1.5;"/>
   </g>
   <g id="text_1">
    <!-- 135 (42) -->
    <g transform="translate(511.070288 88.149712)scale(0.1 -0.1)">
     <defs>
      <path d="M 12.40625 8.296875 
L 28.515625 8.296875 
L 28.515625 63.921875 
L 10.984375 60.40625 
L 10.984375 69.390625 
L 28.421875 72.90625 
L 38.28125 72.90625 
L 38.28125 8.296875 
L 54.390625 8.296875 
L 54.390625 0 
L 12.40625 0 
z
" id="DejaVuSans-49"/>
      <path d="M 40.578125 39.3125 
Q 47.65625 37.796875 51.625 33 
Q 55.609375 28.21875 55.609375 21.1875 
Q 55.609375 10.40625 48.1875 4.484375 
Q 40.765625 -1.421875 27.09375 -1.421875 
Q 22.515625 -1.421875 17.65625 -0.515625 
Q 12.796875 0.390625 7.625 2.203125 
L 7.625 11.71875 
Q 11.71875 9.328125 16.59375 8.109375 
Q 21.484375 6.890625 26.8125 6.890625 
Q 36.078125 6.890625 40.9375 10.546875 
Q 45.796875 14.203125 45.796875 21.1875 
Q 45.796875 27.640625 41.28125 31.265625 
Q 36.765625 34.90625 28.71875 34.90625 
L 20.21875 34.90625 
L 20.21875 43.015625 
L 29.109375 43.015625 
Q 36.375 43.015625 40.234375 45.921875 
Q 44.09375 48.828125 44.09375 54.296875 
Q 44.09375 59.90625 40.109375 62.90625 
Q 36.140625 65.921875 28.71875 65.921875 
Q 24.65625 65.921875 20.015625 65.03125 
Q 15.375 64.15625 9.8125 62.3125 
L 9.8125 71.09375 
Q 15.4375 72.65625 20.34375 73.4375 
Q 25.25 74.21875 29.59375 74.21875 
Q 40.828125 74.21875 47.359375 69.109375 
Q 53.90625 64.015625 53.90625 55.328125 
Q 53.90625 49.265625 50.4375 45.09375 
Q 46.96875 40.921875 40.578125 39.3125 
z
" id="DejaVuSans-51"/>
      <path d="M 10.796875 72.90625 
L 49.515625 72.90625 
L 49.515625 64.59375 
L 19.828125 64.59375 
L 19.828125 46.734375 
Q 21.96875 47.46875 24.109375 47.828125 
Q 26.265625 48.1875 28.421875 48.1875 
Q 40.625 48.1875 47.75 41.5 
Q 54.890625 34.8125 54.890625 23.390625 
Q 54.890625 11.625 47.5625 5.09375 
Q 40.234375 -1.421875 26.90625 -1.421875 
Q 22.3125 -1.421875 17.546875 -0.640625 
Q 12.796875 0.140625 7.71875 1.703125 
L 7.71875 11.625 
Q 12.109375 9.234375 16.796875 8.0625 
Q 21.484375 6.890625 26.703125 6.890625 
Q 35.15625 6.890625 40.078125 11.328125 
Q 45.015625 15.765625 45.015625 23.390625 
Q 45.015625 31 40.078125 35.4375 
Q 35.15625 39.890625 26.703125 39.890625 
Q 22.75 39.890625 18.8125 39.015625 
Q 14.890625 38.140625 10.796875 36.28125 
z
" id="DejaVuSans-53"/>
      <path id="DejaVuSans-32"/>
      <path d="M 31 75.875 
Q 24.46875 64.65625 21.28125 53.65625 
Q 18.109375 42.671875 18.109375 31.390625 
Q 18.109375 20.125 21.3125 9.0625 
Q 24.515625 -2 31 -13.1875 
L 23.1875 -13.1875 
Q 15.875 -1.703125 12.234375 9.375 
Q 8.59375 20.453125 8.59375 31.390625 
Q 8.59375 42.28125 12.203125 53.3125 
Q 15.828125 64.359375 23.1875 75.875 
z
" id="DejaVuSans-40"/>
      <path d="M 37.796875 64.3125 
L 12.890625 25.390625 
L 37.796875 25.390625 
z
M 35.203125 72.90625 
L 47.609375 72.90625 
L 47.609375 25.390625 
L 58.015625 25.390625 
L 58.015625 17.1875 
L 47.609375 17.1875 
L 47.609375 0 
L 37.796875 0 
L 37.796875 17.1875 
L 4.890625 17.1875 
L 4.890625 26.703125 
z
" id="DejaVuSans-52"/>
      <path d="M 19.1875 8.296875 
L 53.609375 8.296875 
L 53.609375 0 
L 7.328125 0 
L 7.328125 8.296875 
Q 12.9375 14.109375 22.625 23.890625 
Q 32.328125 33.6875 34.8125 36.53125 
Q 39.546875 41.84375 41.421875 45.53125 
Q 43.3125 49.21875 43.3125 52.78125 
Q 43.3125 58.59375 39.234375 62.25 
Q 35.15625 65.921875 28.609375 65.921875 
Q 23.96875 65.921875 18.8125 64.3125 
Q 13.671875 62.703125 7.8125 59.421875 
L 7.8125 69.390625 
Q 13.765625 71.78125 18.9375 73 
Q 24.125 74.21875 28.421875 74.21875 
Q 39.75 74.21875 46.484375 68.546875 
Q 53.21875 62.890625 53.21875 53.421875 
Q 53.21875 48.921875 51.53125 44.890625 
Q 49.859375 40.875 45.40625 35.40625 
Q 44.1875 33.984375 37.640625 27.21875 
Q 31.109375 20.453125 19.1875 8.296875 
z
" id="DejaVuSans-50"/>
      <path d="M 8.015625 75.875 
L 15.828125 75.875 
Q 23.140625 64.359375 26.78125 53.3125 
Q 30.421875 42.28125 30.421875 31.390625 
Q 30.421875 20.453125 26.78125 9.375 
Q 23.140625 -1.703125 15.828125 -13.1875 
L 8.015625 -13.1875 
Q 14.5 -2 17.703125 9.0625 
Q 20.90625 20.125 20.90625 31.390625 
Q 20.90625 42.671875 17.703125 53.65625 
Q 14.5 64.65625 8.015625 75.875 
z
" id="DejaVuSans-41"/>
     </defs>
     <use xlink:href="#DejaVuSans-49"/>
     <use x="63.623047" xlink:href="#DejaVuSans-51"/>
     <use x="127.246094" xlink:href="#DejaVuSans-53"/>
     <use x="190.869141" xlink:href="#DejaVuSans-32"/>
     <use x="222.65625" xlink:href="#DejaVuSans-40"/>
     <use x="261.669922" xlink:href="#DejaVuSans-52"/>
     <use x="325.292969" xlink:href="#DejaVuSans-50"/>
     <use x="388.916016" xlink:href="#DejaVuSans-41"/>
    </g>
   </g>
   <g id="text_2">
    <!-- 45 (25) -->
    <g transform="translate(214.130155 106.70847)scale(0.1 -0.1)">
     <use xlink:href="#DejaVuSans-52"/>
     <use x="63.623047" xlink:href="#DejaVuSans-53"/>
     <use x="127.246094" xlink:href="#DejaVuSans-32"/>
     <use x="159.033203" xlink:href="#DejaVuSans-40"/>
     <use x="198.046875" xlink:href="#DejaVuSans-50"/>
     <use x="261.669922" xlink:href="#DejaVuSans-53"/>
     <use x="325.292969" xlink:href="#DejaVuSans-41"/>
    </g>
   </g>
   <g id="text_3">
    <!-- 0 (9) -->
    <g transform="translate(47.10133 125.267228)scale(0.1 -0.1)">
     <defs>
      <path d="M 31.78125 66.40625 
Q 24.171875 66.40625 20.328125 58.90625 
Q 16.5 51.421875 16.5 36.375 
Q 16.5 21.390625 20.328125 13.890625 
Q 24.171875 6.390625 31.78125 6.390625 
Q 39.453125 6.390625 43.28125 13.890625 
Q 47.125 21.390625 47.125 36.375 
Q 47.125 51.421875 43.28125 58.90625 
Q 39.453125 66.40625 31.78125 66.40625 
z
M 31.78125 74.21875 
Q 44.046875 74.21875 50.515625 64.515625 
Q 56.984375 54.828125 56.984375 36.375 
Q 56.984375 17.96875 50.515625 8.265625 
Q 44.046875 -1.421875 31.78125 -1.421875 
Q 19.53125 -1.421875 13.0625 8.265625 
Q 6.59375 17.96875 6.59375 36.375 
Q 6.59375 54.828125 13.0625 64.515625 
Q 19.53125 74.21875 31.78125 74.21875 
z
" id="DejaVuSans-48"/>
      <path d="M 10.984375 1.515625 
L 10.984375 10.5 
Q 14.703125 8.734375 18.5 7.8125 
Q 22.3125 6.890625 25.984375 6.890625 
Q 35.75 6.890625 40.890625 13.453125 
Q 46.046875 20.015625 46.78125 33.40625 
Q 43.953125 29.203125 39.59375 26.953125 
Q 35.25 24.703125 29.984375 24.703125 
Q 19.046875 24.703125 12.671875 31.3125 
Q 6.296875 37.9375 6.296875 49.421875 
Q 6.296875 60.640625 12.9375 67.421875 
Q 19.578125 74.21875 30.609375 74.21875 
Q 43.265625 74.21875 49.921875 64.515625 
Q 56.59375 54.828125 56.59375 36.375 
Q 56.59375 19.140625 48.40625 8.859375 
Q 40.234375 -1.421875 26.421875 -1.421875 
Q 22.703125 -1.421875 18.890625 -0.6875 
Q 15.09375 0.046875 10.984375 1.515625 
z
M 30.609375 32.421875 
Q 37.25 32.421875 41.125 36.953125 
Q 45.015625 41.5 45.015625 49.421875 
Q 45.015625 57.28125 41.125 61.84375 
Q 37.25 66.40625 30.609375 66.40625 
Q 23.96875 66.40625 20.09375 61.84375 
Q 16.21875 57.28125 16.21875 49.421875 
Q 16.21875 41.5 20.09375 36.953125 
Q 23.96875 32.421875 30.609375 32.421875 
z
" id="DejaVuSans-57"/>
     </defs>
     <use xlink:href="#DejaVuSans-48"/>
     <use x="63.623047" xlink:href="#DejaVuSans-32"/>
     <use x="95.410156" xlink:href="#DejaVuSans-40"/>
     <use x="134.423828" xlink:href="#DejaVuSans-57"/>
     <use x="198.046875" xlink:href="#DejaVuSans-41"/>
    </g>
   </g>
   <g id="text_4">
    <!-- 10 (8) -->
    <g transform="translate(84.218847 143.825987)scale(0.1 -0.1)">
     <defs>
      <path d="M 31.78125 34.625 
Q 24.75 34.625 20.71875 30.859375 
Q 16.703125 27.09375 16.703125 20.515625 
Q 16.703125 13.921875 20.71875 10.15625 
Q 24.75 6.390625 31.78125 6.390625 
Q 38.8125 6.390625 42.859375 10.171875 
Q 46.921875 13.96875 46.921875 20.515625 
Q 46.921875 27.09375 42.890625 30.859375 
Q 38.875 34.625 31.78125 34.625 
z
M 21.921875 38.8125 
Q 15.578125 40.375 12.03125 44.71875 
Q 8.5 49.078125 8.5 55.328125 
Q 8.5 64.0625 14.71875 69.140625 
Q 20.953125 74.21875 31.78125 74.21875 
Q 42.671875 74.21875 48.875 69.140625 
Q 55.078125 64.0625 55.078125 55.328125 
Q 55.078125 49.078125 51.53125 44.71875 
Q 48 40.375 41.703125 38.8125 
Q 48.828125 37.15625 52.796875 32.3125 
Q 56.78125 27.484375 56.78125 20.515625 
Q 56.78125 9.90625 50.3125 4.234375 
Q 43.84375 -1.421875 31.78125 -1.421875 
Q 19.734375 -1.421875 13.25 4.234375 
Q 6.78125 9.90625 6.78125 20.515625 
Q 6.78125 27.484375 10.78125 32.3125 
Q 14.796875 37.15625 21.921875 38.8125 
z
M 18.3125 54.390625 
Q 18.3125 48.734375 21.84375 45.5625 
Q 25.390625 42.390625 31.78125 42.390625 
Q 38.140625 42.390625 41.71875 45.5625 
Q 45.3125 48.734375 45.3125 54.390625 
Q 45.3125 60.0625 41.71875 63.234375 
Q 38.140625 66.40625 31.78125 66.40625 
Q 25.390625 66.40625 21.84375 63.234375 
Q 18.3125 60.0625 18.3125 54.390625 
z
" id="DejaVuSans-56"/>
     </defs>
     <use xlink:href="#DejaVuSans-49"/>
     <use x="63.623047" xlink:href="#DejaVuSans-48"/>
     <use x="127.246094" xlink:href="#DejaVuSans-32"/>
     <use x="159.033203" xlink:href="#DejaVuSans-40"/>
     <use x="198.046875" xlink:href="#DejaVuSans-56"/>
     <use x="261.669922" xlink:href="#DejaVuSans-41"/>
    </g>
   </g>
   <g id="text_5">
    <!-- 5 (1) -->
    <g transform="translate(65.660089 162.384745)scale(0.1 -0.1)">
     <use xlink:href="#DejaVuSans-53"/>
     <use x="63.623047" xlink:href="#DejaVuSans-32"/>
     <use x="95.410156" xlink:href="#DejaVuSans-40"/>
     <use x="134.423828" xlink:href="#DejaVuSans-49"/>
     <use x="198.046875" xlink:href="#DejaVuSans-41"/>
    </g>
   </g>
   <g id="text_6">
    <!-- 20 (6) -->
    <g transform="translate(121.336364 162.384745)scale(0.1 -0.1)">
     <defs>
      <path d="M 33.015625 40.375 
Q 26.375 40.375 22.484375 35.828125 
Q 18.609375 31.296875 18.609375 23.390625 
Q 18.609375 15.53125 22.484375 10.953125 
Q 26.375 6.390625 33.015625 6.390625 
Q 39.65625 6.390625 43.53125 10.953125 
Q 47.40625 15.53125 47.40625 23.390625 
Q 47.40625 31.296875 43.53125 35.828125 
Q 39.65625 40.375 33.015625 40.375 
z
M 52.59375 71.296875 
L 52.59375 62.3125 
Q 48.875 64.0625 45.09375 64.984375 
Q 41.3125 65.921875 37.59375 65.921875 
Q 27.828125 65.921875 22.671875 59.328125 
Q 17.53125 52.734375 16.796875 39.40625 
Q 19.671875 43.65625 24.015625 45.921875 
Q 28.375 48.1875 33.59375 48.1875 
Q 44.578125 48.1875 50.953125 41.515625 
Q 57.328125 34.859375 57.328125 23.390625 
Q 57.328125 12.15625 50.6875 5.359375 
Q 44.046875 -1.421875 33.015625 -1.421875 
Q 20.359375 -1.421875 13.671875 8.265625 
Q 6.984375 17.96875 6.984375 36.375 
Q 6.984375 53.65625 15.1875 63.9375 
Q 23.390625 74.21875 37.203125 74.21875 
Q 40.921875 74.21875 44.703125 73.484375 
Q 48.484375 72.75 52.59375 71.296875 
z
" id="DejaVuSans-54"/>
     </defs>
     <use xlink:href="#DejaVuSans-50"/>
     <use x="63.623047" xlink:href="#DejaVuSans-48"/>
     <use x="127.246094" xlink:href="#DejaVuSans-32"/>
     <use x="159.033203" xlink:href="#DejaVuSans-40"/>
     <use x="198.046875" xlink:href="#DejaVuSans-54"/>
     <use x="261.669922" xlink:href="#DejaVuSans-41"/>
    </g>
   </g>
   <g id="text_7">
    <!-- 15 (1) -->
    <g transform="translate(102.777605 180.943503)scale(0.1 -0.1)">
     <use xlink:href="#DejaVuSans-49"/>
     <use x="63.623047" xlink:href="#DejaVuSans-53"/>
     <use x="127.246094" xlink:href="#DejaVuSans-32"/>
     <use x="159.033203" xlink:href="#DejaVuSans-40"/>
     <use x="198.046875" xlink:href="#DejaVuSans-49"/>
     <use x="261.669922" xlink:href="#DejaVuSans-41"/>
    </g>
   </g>
   <g id="text_8">
    <!-- 30 (4) -->
    <g transform="translate(158.45388 180.943503)scale(0.1 -0.1)">
     <use xlink:href="#DejaVuSans-51"/>
     <use x="63.623047" xlink:href="#DejaVuSans-48"/>
     <use x="127.246094" xlink:href="#DejaVuSans-32"/>
     <use x="159.033203" xlink:href="#DejaVuSans-40"/>
     <use x="198.046875" xlink:href="#DejaVuSans-52"/>
     <use x="261.669922" xlink:href="#DejaVuSans-41"/>
    </g>
   </g>
   <g id="text_9">
    <!-- 25 (1) -->
    <g transform="translate(139.895122 199.502262)scale(0.1 -0.1)">
     <use xlink:href="#DejaVuSans-50"/>
     <use x="63.623047" xlink:href="#DejaVuSans-53"/>
     <use x="127.246094" xlink:href="#DejaVuSans-32"/>
     <use x="159.033203" xlink:href="#DejaVuSans-40"/>
     <use x="198.046875" xlink:href="#DejaVuSans-49"/>
     <use x="261.669922" xlink:href="#DejaVuSans-41"/>
    </g>
   </g>
   <g id="text_10">
    <!-- 35 (2) -->
    <g transform="translate(177.012639 199.502262)scale(0.1 -0.1)">
     <use xlink:href="#DejaVuSans-51"/>
     <use x="63.623047" xlink:href="#DejaVuSans-53"/>
     <use x="127.246094" xlink:href="#DejaVuSans-32"/>
     <use x="159.033203" xlink:href="#DejaVuSans-40"/>
     <use x="198.046875" xlink:href="#DejaVuSans-50"/>
     <use x="261.669922" xlink:href="#DejaVuSans-41"/>
    </g>
   </g>
   <g id="text_11">
    <!-- 40 (1) -->
    <g transform="translate(195.571397 218.06102)scale(0.1 -0.1)">
     <use xlink:href="#DejaVuSans-52"/>
     <use x="63.623047" xlink:href="#DejaVuSans-48"/>
     <use x="127.246094" xlink:href="#DejaVuSans-32"/>
     <use x="159.033203" xlink:href="#DejaVuSans-40"/>
     <use x="198.046875" xlink:href="#DejaVuSans-49"/>
     <use x="261.669922" xlink:href="#DejaVuSans-41"/>
    </g>
   </g>
   <g id="text_12">
    <!-- 70 (15) -->
    <g transform="translate(306.923947 125.267228)scale(0.1 -0.1)">
     <defs>
      <path d="M 8.203125 72.90625 
L 55.078125 72.90625 
L 55.078125 68.703125 
L 28.609375 0 
L 18.3125 0 
L 43.21875 64.59375 
L 8.203125 64.59375 
z
" id="DejaVuSans-55"/>
     </defs>
     <use xlink:href="#DejaVuSans-55"/>
     <use x="63.623047" xlink:href="#DejaVuSans-48"/>
     <use x="127.246094" xlink:href="#DejaVuSans-32"/>
     <use x="159.033203" xlink:href="#DejaVuSans-40"/>
     <use x="198.046875" xlink:href="#DejaVuSans-49"/>
     <use x="261.669922" xlink:href="#DejaVuSans-53"/>
     <use x="325.292969" xlink:href="#DejaVuSans-41"/>
    </g>
   </g>
   <g id="text_13">
    <!-- 65 (4) -->
    <g transform="translate(288.365188 143.825987)scale(0.1 -0.1)">
     <use xlink:href="#DejaVuSans-54"/>
     <use x="63.623047" xlink:href="#DejaVuSans-53"/>
     <use x="127.246094" xlink:href="#DejaVuSans-32"/>
     <use x="159.033203" xlink:href="#DejaVuSans-40"/>
     <use x="198.046875" xlink:href="#DejaVuSans-52"/>
     <use x="261.669922" xlink:href="#DejaVuSans-41"/>
    </g>
   </g>
   <g id="text_14">
    <!-- 60 (3) -->
    <g transform="translate(269.80643 162.384745)scale(0.1 -0.1)">
     <use xlink:href="#DejaVuSans-54"/>
     <use x="63.623047" xlink:href="#DejaVuSans-48"/>
     <use x="127.246094" xlink:href="#DejaVuSans-32"/>
     <use x="159.033203" xlink:href="#DejaVuSans-40"/>
     <use x="198.046875" xlink:href="#DejaVuSans-51"/>
     <use x="261.669922" xlink:href="#DejaVuSans-41"/>
    </g>
   </g>
   <g id="text_15">
    <!-- 50 (2) -->
    <g transform="translate(232.688914 180.943503)scale(0.1 -0.1)">
     <use xlink:href="#DejaVuSans-53"/>
     <use x="63.623047" xlink:href="#DejaVuSans-48"/>
     <use x="127.246094" xlink:href="#DejaVuSans-32"/>
     <use x="159.033203" xlink:href="#DejaVuSans-40"/>
     <use x="198.046875" xlink:href="#DejaVuSans-50"/>
     <use x="261.669922" xlink:href="#DejaVuSans-41"/>
    </g>
   </g>
   <g id="text_16">
    <!-- 55 (1) -->
    <g transform="translate(251.247672 199.502262)scale(0.1 -0.1)">
     <use xlink:href="#DejaVuSans-53"/>
     <use x="63.623047" xlink:href="#DejaVuSans-53"/>
     <use x="127.246094" xlink:href="#DejaVuSans-32"/>
     <use x="159.033203" xlink:href="#DejaVuSans-40"/>
     <use x="198.046875" xlink:href="#DejaVuSans-49"/>
     <use x="261.669922" xlink:href="#DejaVuSans-41"/>
    </g>
   </g>
   <g id="text_17">
    <!-- 85 (10) -->
    <g transform="translate(362.600222 143.825987)scale(0.1 -0.1)">
     <use xlink:href="#DejaVuSans-56"/>
     <use x="63.623047" xlink:href="#DejaVuSans-53"/>
     <use x="127.246094" xlink:href="#DejaVuSans-32"/>
     <use x="159.033203" xlink:href="#DejaVuSans-40"/>
     <use x="198.046875" xlink:href="#DejaVuSans-49"/>
     <use x="261.669922" xlink:href="#DejaVuSans-48"/>
     <use x="325.292969" xlink:href="#DejaVuSans-41"/>
    </g>
   </g>
   <g id="text_18">
    <!-- 80 (2) -->
    <g transform="translate(344.041463 162.384745)scale(0.1 -0.1)">
     <use xlink:href="#DejaVuSans-56"/>
     <use x="63.623047" xlink:href="#DejaVuSans-48"/>
     <use x="127.246094" xlink:href="#DejaVuSans-32"/>
     <use x="159.033203" xlink:href="#DejaVuSans-40"/>
     <use x="198.046875" xlink:href="#DejaVuSans-50"/>
     <use x="261.669922" xlink:href="#DejaVuSans-41"/>
    </g>
   </g>
   <g id="text_19">
    <!-- 75 (1) -->
    <g transform="translate(325.482705 180.943503)scale(0.1 -0.1)">
     <use xlink:href="#DejaVuSans-55"/>
     <use x="63.623047" xlink:href="#DejaVuSans-53"/>
     <use x="127.246094" xlink:href="#DejaVuSans-32"/>
     <use x="159.033203" xlink:href="#DejaVuSans-40"/>
     <use x="198.046875" xlink:href="#DejaVuSans-49"/>
     <use x="261.669922" xlink:href="#DejaVuSans-41"/>
    </g>
   </g>
   <g id="text_20">
    <!-- 110 (7) -->
    <g transform="translate(455.394013 162.384745)scale(0.1 -0.1)">
     <use xlink:href="#DejaVuSans-49"/>
     <use x="63.623047" xlink:href="#DejaVuSans-49"/>
     <use x="127.246094" xlink:href="#DejaVuSans-48"/>
     <use x="190.869141" xlink:href="#DejaVuSans-32"/>
     <use x="222.65625" xlink:href="#DejaVuSans-40"/>
     <use x="261.669922" xlink:href="#DejaVuSans-55"/>
     <use x="325.292969" xlink:href="#DejaVuSans-41"/>
    </g>
   </g>
   <g id="text_21">
    <!-- 95 (4) -->
    <g transform="translate(399.717738 180.943503)scale(0.1 -0.1)">
     <use xlink:href="#DejaVuSans-57"/>
     <use x="63.623047" xlink:href="#DejaVuSans-53"/>
     <use x="127.246094" xlink:href="#DejaVuSans-32"/>
     <use x="159.033203" xlink:href="#DejaVuSans-40"/>
     <use x="198.046875" xlink:href="#DejaVuSans-52"/>
     <use x="261.669922" xlink:href="#DejaVuSans-41"/>
    </g>
   </g>
   <g id="text_22">
    <!-- 90 (1) -->
    <g transform="translate(381.15898 199.502262)scale(0.1 -0.1)">
     <use xlink:href="#DejaVuSans-57"/>
     <use x="63.623047" xlink:href="#DejaVuSans-48"/>
     <use x="127.246094" xlink:href="#DejaVuSans-32"/>
     <use x="159.033203" xlink:href="#DejaVuSans-40"/>
     <use x="198.046875" xlink:href="#DejaVuSans-49"/>
     <use x="261.669922" xlink:href="#DejaVuSans-41"/>
    </g>
   </g>
   <g id="text_23">
    <!-- 100 (2) -->
    <g transform="translate(418.276497 199.502262)scale(0.1 -0.1)">
     <use xlink:href="#DejaVuSans-49"/>
     <use x="63.623047" xlink:href="#DejaVuSans-48"/>
     <use x="127.246094" xlink:href="#DejaVuSans-48"/>
     <use x="190.869141" xlink:href="#DejaVuSans-32"/>
     <use x="222.65625" xlink:href="#DejaVuSans-40"/>
     <use x="261.669922" xlink:href="#DejaVuSans-50"/>
     <use x="325.292969" xlink:href="#DejaVuSans-41"/>
    </g>
   </g>
   <g id="text_24">
    <!-- 105 (1) -->
    <g transform="translate(436.835255 218.06102)scale(0.1 -0.1)">
     <use xlink:href="#DejaVuSans-49"/>
     <use x="63.623047" xlink:href="#DejaVuSans-48"/>
     <use x="127.246094" xlink:href="#DejaVuSans-53"/>
     <use x="190.869141" xlink:href="#DejaVuSans-32"/>
     <use x="222.65625" xlink:href="#DejaVuSans-40"/>
     <use x="261.669922" xlink:href="#DejaVuSans-49"/>
     <use x="325.292969" xlink:href="#DejaVuSans-41"/>
    </g>
   </g>
   <g id="text_25">
    <!-- 125 (2) -->
    <g transform="translate(473.952772 180.943503)scale(0.1 -0.1)">
     <use xlink:href="#DejaVuSans-49"/>
     <use x="63.623047" xlink:href="#DejaVuSans-50"/>
     <use x="127.246094" xlink:href="#DejaVuSans-53"/>
     <use x="190.869141" xlink:href="#DejaVuSans-32"/>
     <use x="222.65625" xlink:href="#DejaVuSans-40"/>
     <use x="261.669922" xlink:href="#DejaVuSans-50"/>
     <use x="325.292969" xlink:href="#DejaVuSans-41"/>
    </g>
   </g>
   <g id="text_26">
    <!-- 130 (1) -->
    <g transform="translate(492.51153 199.502262)scale(0.1 -0.1)">
     <use xlink:href="#DejaVuSans-49"/>
     <use x="63.623047" xlink:href="#DejaVuSans-51"/>
     <use x="127.246094" xlink:href="#DejaVuSans-48"/>
     <use x="190.869141" xlink:href="#DejaVuSans-32"/>
     <use x="222.65625" xlink:href="#DejaVuSans-40"/>
     <use x="261.669922" xlink:href="#DejaVuSans-49"/>
     <use x="325.292969" xlink:href="#DejaVuSans-41"/>
    </g>
   </g>
   <g id="text_27">
    <!-- 150 (16) -->
    <g transform="translate(566.746563 106.70847)scale(0.1 -0.1)">
     <use xlink:href="#DejaVuSans-49"/>
     <use x="63.623047" xlink:href="#DejaVuSans-53"/>
     <use x="127.246094" xlink:href="#DejaVuSans-48"/>
     <use x="190.869141" xlink:href="#DejaVuSans-32"/>
     <use x="222.65625" xlink:href="#DejaVuSans-40"/>
     <use x="261.669922" xlink:href="#DejaVuSans-49"/>
     <use x="325.292969" xlink:href="#DejaVuSans-54"/>
     <use x="388.916016" xlink:href="#DejaVuSans-41"/>
    </g>
   </g>
   <g id="text_28">
    <!-- 145 (2) -->
    <g transform="translate(548.187805 125.267228)scale(0.1 -0.1)">
     <use xlink:href="#DejaVuSans-49"/>
     <use x="63.623047" xlink:href="#DejaVuSans-52"/>
     <use x="127.246094" xlink:href="#DejaVuSans-53"/>
     <use x="190.869141" xlink:href="#DejaVuSans-32"/>
     <use x="222.65625" xlink:href="#DejaVuSans-40"/>
     <use x="261.669922" xlink:href="#DejaVuSans-50"/>
     <use x="325.292969" xlink:href="#DejaVuSans-41"/>
    </g>
   </g>
   <g id="text_29">
    <!-- 140 (1) -->
    <g transform="translate(529.629047 143.825987)scale(0.1 -0.1)">
     <use xlink:href="#DejaVuSans-49"/>
     <use x="63.623047" xlink:href="#DejaVuSans-52"/>
     <use x="127.246094" xlink:href="#DejaVuSans-48"/>
     <use x="190.869141" xlink:href="#DejaVuSans-32"/>
     <use x="222.65625" xlink:href="#DejaVuSans-40"/>
     <use x="261.669922" xlink:href="#DejaVuSans-49"/>
     <use x="325.292969" xlink:href="#DejaVuSans-41"/>
    </g>
   </g>
   <g id="text_30">
    <!-- 180 (13) -->
    <g transform="translate(678.099113 125.267228)scale(0.1 -0.1)">
     <use xlink:href="#DejaVuSans-49"/>
     <use x="63.623047" xlink:href="#DejaVuSans-56"/>
     <use x="127.246094" xlink:href="#DejaVuSans-48"/>
     <use x="190.869141" xlink:href="#DejaVuSans-32"/>
     <use x="222.65625" xlink:href="#DejaVuSans-40"/>
     <use x="261.669922" xlink:href="#DejaVuSans-49"/>
     <use x="325.292969" xlink:href="#DejaVuSans-51"/>
     <use x="388.916016" xlink:href="#DejaVuSans-41"/>
    </g>
   </g>
   <g id="text_31">
    <!-- 165 (5) -->
    <g transform="translate(622.422838 143.825987)scale(0.1 -0.1)">
     <use xlink:href="#DejaVuSans-49"/>
     <use x="63.623047" xlink:href="#DejaVuSans-54"/>
     <use x="127.246094" xlink:href="#DejaVuSans-53"/>
     <use x="190.869141" xlink:href="#DejaVuSans-32"/>
     <use x="222.65625" xlink:href="#DejaVuSans-40"/>
     <use x="261.669922" xlink:href="#DejaVuSans-53"/>
     <use x="325.292969" xlink:href="#DejaVuSans-41"/>
    </g>
   </g>
   <g id="text_32">
    <!-- 160 (2) -->
    <g transform="translate(603.86408 162.384745)scale(0.1 -0.1)">
     <use xlink:href="#DejaVuSans-49"/>
     <use x="63.623047" xlink:href="#DejaVuSans-54"/>
     <use x="127.246094" xlink:href="#DejaVuSans-48"/>
     <use x="190.869141" xlink:href="#DejaVuSans-32"/>
     <use x="222.65625" xlink:href="#DejaVuSans-40"/>
     <use x="261.669922" xlink:href="#DejaVuSans-50"/>
     <use x="325.292969" xlink:href="#DejaVuSans-41"/>
    </g>
   </g>
   <g id="text_33">
    <!-- 155 (1) -->
    <g transform="translate(585.305322 180.943503)scale(0.1 -0.1)">
     <use xlink:href="#DejaVuSans-49"/>
     <use x="63.623047" xlink:href="#DejaVuSans-53"/>
     <use x="127.246094" xlink:href="#DejaVuSans-53"/>
     <use x="190.869141" xlink:href="#DejaVuSans-32"/>
     <use x="222.65625" xlink:href="#DejaVuSans-40"/>
     <use x="261.669922" xlink:href="#DejaVuSans-49"/>
     <use x="325.292969" xlink:href="#DejaVuSans-41"/>
    </g>
   </g>
   <g id="text_34">
    <!-- 170 (2) -->
    <g transform="translate(640.981596 162.384745)scale(0.1 -0.1)">
     <use xlink:href="#DejaVuSans-49"/>
     <use x="63.623047" xlink:href="#DejaVuSans-55"/>
     <use x="127.246094" xlink:href="#DejaVuSans-48"/>
     <use x="190.869141" xlink:href="#DejaVuSans-32"/>
     <use x="222.65625" xlink:href="#DejaVuSans-40"/>
     <use x="261.669922" xlink:href="#DejaVuSans-50"/>
     <use x="325.292969" xlink:href="#DejaVuSans-41"/>
    </g>
   </g>
   <g id="text_35">
    <!-- 175 (1) -->
    <g transform="translate(659.540355 180.943503)scale(0.1 -0.1)">
     <use xlink:href="#DejaVuSans-49"/>
     <use x="63.623047" xlink:href="#DejaVuSans-55"/>
     <use x="127.246094" xlink:href="#DejaVuSans-53"/>
     <use x="190.869141" xlink:href="#DejaVuSans-32"/>
     <use x="222.65625" xlink:href="#DejaVuSans-40"/>
     <use x="261.669922" xlink:href="#DejaVuSans-49"/>
     <use x="325.292969" xlink:href="#DejaVuSans-41"/>
    </g>
   </g>
   <g id="text_36">
    <!-- 185 (7) -->
    <g transform="translate(696.657871 143.825987)scale(0.1 -0.1)">
     <use xlink:href="#DejaVuSans-49"/>
     <use x="63.623047" xlink:href="#DejaVuSans-56"/>
     <use x="127.246094" xlink:href="#DejaVuSans-53"/>
     <use x="190.869141" xlink:href="#DejaVuSans-32"/>
     <use x="222.65625" xlink:href="#DejaVuSans-40"/>
     <use x="261.669922" xlink:href="#DejaVuSans-55"/>
     <use x="325.292969" xlink:href="#DejaVuSans-41"/>
    </g>
   </g>
   <g id="text_37">
    <!-- 190 (6) -->
    <g transform="translate(715.21663 162.384745)scale(0.1 -0.1)">
     <use xlink:href="#DejaVuSans-49"/>
     <use x="63.623047" xlink:href="#DejaVuSans-57"/>
     <use x="127.246094" xlink:href="#DejaVuSans-48"/>
     <use x="190.869141" xlink:href="#DejaVuSans-32"/>
     <use x="222.65625" xlink:href="#DejaVuSans-40"/>
     <use x="261.669922" xlink:href="#DejaVuSans-54"/>
     <use x="325.292969" xlink:href="#DejaVuSans-41"/>
    </g>
   </g>
   <g id="text_38">
    <!-- 195 (5) -->
    <g transform="translate(733.775388 180.943503)scale(0.1 -0.1)">
     <use xlink:href="#DejaVuSans-49"/>
     <use x="63.623047" xlink:href="#DejaVuSans-57"/>
     <use x="127.246094" xlink:href="#DejaVuSans-53"/>
     <use x="190.869141" xlink:href="#DejaVuSans-32"/>
     <use x="222.65625" xlink:href="#DejaVuSans-40"/>
     <use x="261.669922" xlink:href="#DejaVuSans-53"/>
     <use x="325.292969" xlink:href="#DejaVuSans-41"/>
    </g>
   </g>
   <g id="text_39">
    <!-- 196 (4) -->
    <g transform="translate(752.334146 199.502262)scale(0.1 -0.1)">
     <use xlink:href="#DejaVuSans-49"/>
     <use x="63.623047" xlink:href="#DejaVuSans-57"/>
     <use x="127.246094" xlink:href="#DejaVuSans-54"/>
     <use x="190.869141" xlink:href="#DejaVuSans-32"/>
     <use x="222.65625" xlink:href="#DejaVuSans-40"/>
     <use x="261.669922" xlink:href="#DejaVuSans-52"/>
     <use x="325.292969" xlink:href="#DejaVuSans-41"/>
    </g>
   </g>
   <g id="text_40">
    <!-- 197 (3) -->
    <g transform="translate(770.892905 218.06102)scale(0.1 -0.1)">
     <use xlink:href="#DejaVuSans-49"/>
     <use x="63.623047" xlink:href="#DejaVuSans-57"/>
     <use x="127.246094" xlink:href="#DejaVuSans-55"/>
     <use x="190.869141" xlink:href="#DejaVuSans-32"/>
     <use x="222.65625" xlink:href="#DejaVuSans-40"/>
     <use x="261.669922" xlink:href="#DejaVuSans-51"/>
     <use x="325.292969" xlink:href="#DejaVuSans-41"/>
    </g>
   </g>
   <g id="text_41">
    <!-- 198 (2) -->
    <g transform="translate(789.451663 236.619778)scale(0.1 -0.1)">
     <use xlink:href="#DejaVuSans-49"/>
     <use x="63.623047" xlink:href="#DejaVuSans-57"/>
     <use x="127.246094" xlink:href="#DejaVuSans-56"/>
     <use x="190.869141" xlink:href="#DejaVuSans-32"/>
     <use x="222.65625" xlink:href="#DejaVuSans-40"/>
     <use x="261.669922" xlink:href="#DejaVuSans-50"/>
     <use x="325.292969" xlink:href="#DejaVuSans-41"/>
    </g>
   </g>
   <g id="text_42">
    <!-- 199 (1) -->
    <g transform="translate(808.010421 255.178537)scale(0.1 -0.1)">
     <use xlink:href="#DejaVuSans-49"/>
     <use x="63.623047" xlink:href="#DejaVuSans-57"/>
     <use x="127.246094" xlink:href="#DejaVuSans-57"/>
     <use x="190.869141" xlink:href="#DejaVuSans-32"/>
     <use x="222.65625" xlink:href="#DejaVuSans-40"/>
     <use x="261.669922" xlink:href="#DejaVuSans-49"/>
     <use x="325.292969" xlink:href="#DejaVuSans-41"/>
    </g>
   </g>
  </g>
 </g>
 <defs>
  <clipPath id="pc44aa0ce5d">
   <rect height="332.64" width="837" x="7.2" y="7.2"/>
  </clipPath>
 </defs>
</svg>
